<?xml version="1.0" encoding="utf-8"?>
<!-- Generator: Adobe Illustrator 24.1.0, SVG Export Plug-In . SVG Version: 6.00 Build 0)  -->
<svg version="1.1" id="Capa_1" xmlns="http://www.w3.org/2000/svg" xmlns:xlink="http://www.w3.org/1999/xlink" x="0px" y="0px"
	 viewBox="0 0 144 60" style="enable-background:new 0 0 144 60;" xml:space="preserve">
<style type="text/css">
	.st0{fill:#1D1D1B;}
	.st1{fill:#FFFFFF;}
	.st2{fill-rule:evenodd;clip-rule:evenodd;fill:none;}
	.st3{fill-rule:evenodd;clip-rule:evenodd;fill:none;stroke:#1A171A;stroke-width:0.4416;stroke-miterlimit:3.8637;}
	.st4{fill:none;}
	.st5{fill-rule:evenodd;clip-rule:evenodd;fill:#1D1D1B;}
	.st6{fill:#1D1D1B;stroke:#1D1D1B;stroke-width:0.8832;stroke-linecap:round;stroke-linejoin:round;}
	.st7{fill:none;stroke:#1D1D1B;stroke-width:0.8832;stroke-linecap:round;stroke-linejoin:round;}
</style>
<g>
	<polygon class="st0" points="132,60 8.3,60 8.3,0 132,0 132,10.1 131.5,10.1 131.5,0.5 8.8,0.5 8.8,59.5 131.5,59.5 131.5,24.8 
		132,24.8 	"/>
</g>
<g>
	<path class="st0" d="M28.1,19.3c-0.1,0.1-0.3,0.2-0.4,0.2c-0.2,0.1-0.4,0.1-0.6,0.1c-0.3,0-0.5,0-0.8-0.1c-0.2-0.1-0.3-0.2-0.4-0.4
		c-0.5-1.2-0.9-2.2-1.2-3c-0.3-0.8-0.6-1.5-0.8-2.1h-0.1c0,0.8-0.1,1.5-0.1,2.1c0,0.6-0.1,1.3-0.1,1.9c0,0.6,0,1.2-0.1,1.9
		c0,0.6-0.1,1.3-0.1,2.1C23.3,22,23.2,22,23,22c-0.2,0-0.4,0.1-0.6,0.1c-0.8,0-1.2-0.3-1.2-0.9c0-0.2,0-0.5,0-0.9
		c0-0.4,0-0.8,0.1-1.3c0-0.5,0.1-1.1,0.1-1.7c0-0.6,0.1-1.2,0.1-1.8c0-0.6,0.1-1.2,0.1-1.8c0-0.6,0.1-1.2,0.1-1.7
		c0.1-0.1,0.3-0.2,0.5-0.4c0.2-0.1,0.6-0.2,1-0.2c0.4,0,0.8,0.1,1.1,0.2c0.3,0.1,0.5,0.4,0.6,0.7c0.1,0.4,0.3,0.7,0.5,1.2
		c0.2,0.4,0.3,0.9,0.5,1.3c0.2,0.4,0.3,0.9,0.5,1.3c0.2,0.4,0.3,0.8,0.5,1.2H27c0.4-1.1,0.8-2.1,1.2-3.1c0.4-1,0.7-1.9,1-2.6
		c0.1-0.1,0.3-0.1,0.5-0.2c0.2,0,0.4-0.1,0.7-0.1c0.4,0,0.8,0.1,1,0.2c0.3,0.1,0.4,0.3,0.5,0.6c0,0.2,0.1,0.6,0.2,1
		c0.1,0.5,0.1,1,0.2,1.6c0.1,0.6,0.1,1.3,0.2,1.9c0.1,0.7,0.1,1.4,0.2,2c0,0.6,0.1,1.2,0.1,1.8c0,0.5,0.1,0.9,0.1,1.2
		c-0.1,0.1-0.3,0.2-0.5,0.2c-0.2,0-0.4,0.1-0.6,0.1c-0.3,0-0.6-0.1-0.8-0.2c-0.2-0.1-0.3-0.3-0.4-0.7c0-0.7-0.1-1.4-0.1-2.1
		c0-0.7-0.1-1.4-0.1-2s0-1.2-0.1-1.7c0-0.5,0-1-0.1-1.4h-0.1c-0.2,0.5-0.4,1.2-0.8,2.1C29,17,28.6,18,28.1,19.3z"/>
	<path class="st0" d="M41,19.5h-3.9c-0.1,0.4-0.3,0.9-0.4,1.3c-0.1,0.5-0.3,0.8-0.4,1.1c-0.1,0-0.2,0.1-0.4,0.1
		c-0.1,0-0.3,0.1-0.5,0.1c-0.4,0-0.7-0.1-0.9-0.2s-0.3-0.4-0.3-0.7c0-0.1,0-0.3,0.1-0.4c0-0.1,0.1-0.3,0.1-0.5
		c0.1-0.3,0.2-0.7,0.4-1.2c0.2-0.5,0.3-0.9,0.5-1.5c0.2-0.5,0.4-1.1,0.6-1.7c0.2-0.6,0.4-1.1,0.6-1.7s0.4-1,0.6-1.5
		c0.2-0.5,0.3-0.9,0.5-1.2c0.1-0.1,0.4-0.2,0.7-0.2c0.3-0.1,0.6-0.1,0.9-0.1c0.4,0,0.8,0.1,1.1,0.2c0.3,0.1,0.5,0.3,0.6,0.6
		c0.2,0.6,0.5,1.4,0.8,2.2c0.3,0.8,0.6,1.7,0.8,2.5c0.3,0.9,0.6,1.7,0.8,2.6c0.3,0.8,0.5,1.6,0.7,2.3c-0.1,0.1-0.3,0.2-0.5,0.3
		c-0.2,0.1-0.4,0.1-0.7,0.1c-0.4,0-0.7-0.1-0.9-0.2c-0.2-0.1-0.3-0.4-0.4-0.7L41,19.5z M39,13.3c-0.1,0.3-0.2,0.6-0.3,1
		c-0.1,0.4-0.2,0.7-0.4,1.1c-0.1,0.4-0.3,0.8-0.4,1.2c-0.1,0.4-0.3,0.8-0.4,1.2h3L39,13.3L39,13.3z"/>
	<path class="st0" d="M46.7,22.1c-0.4,0-0.7-0.1-0.9-0.2s-0.3-0.4-0.3-0.8v-9.2c0.1-0.2,0.3-0.3,0.6-0.4c0.2-0.1,0.5-0.1,0.8-0.1
		c0.4,0,0.7,0.1,1,0.2c0.3,0.1,0.5,0.4,0.8,0.8l2.5,4.5c0.2,0.4,0.5,0.8,0.7,1.3s0.4,0.8,0.6,1.2l0.1,0c-0.1-0.7-0.1-1.3-0.1-2
		c0-0.6,0-1.3,0-1.9v-3.9c0.1,0,0.2-0.1,0.4-0.1c0.2,0,0.4,0,0.6,0c0.4,0,0.7,0.1,0.9,0.2c0.2,0.2,0.3,0.4,0.3,0.8v9.3
		c-0.1,0.1-0.3,0.2-0.5,0.3c-0.2,0.1-0.5,0.1-0.8,0.1c-0.3,0-0.7-0.1-0.9-0.2c-0.3-0.1-0.5-0.4-0.8-0.8l-2.5-4.5
		c-0.2-0.4-0.5-0.8-0.7-1.3s-0.4-0.9-0.6-1.2l-0.1,0c0.1,0.6,0.1,1.3,0.1,1.9c0,0.7,0,1.3,0,1.9V22c-0.1,0-0.2,0.1-0.4,0.1
		C47.1,22.1,46.9,22.1,46.7,22.1z"/>
	<path class="st0" d="M61.4,22.3c-0.7,0-1.3-0.1-1.8-0.3c-0.5-0.2-1-0.5-1.4-0.8c-0.4-0.4-0.7-0.8-0.9-1.3c-0.2-0.5-0.3-1-0.3-1.6
		v-6.7c0.1,0,0.2-0.1,0.4-0.1c0.2,0,0.4-0.1,0.6-0.1c0.4,0,0.7,0.1,0.9,0.2c0.2,0.2,0.3,0.4,0.3,0.8v5.7c0,0.7,0.2,1.3,0.6,1.7
		c0.4,0.4,0.9,0.6,1.5,0.6c0.6,0,1.1-0.2,1.5-0.6c0.4-0.4,0.6-0.9,0.6-1.7v-6.7c0.1,0,0.3-0.1,0.4-0.1s0.4-0.1,0.6-0.1
		c0.4,0,0.7,0.1,0.9,0.2c0.2,0.2,0.3,0.4,0.3,0.8v5.8c0,0.6-0.1,1.2-0.3,1.6c-0.2,0.5-0.5,0.9-0.9,1.3c-0.4,0.4-0.8,0.6-1.4,0.8
		C62.7,22.2,62.1,22.3,61.4,22.3z"/>
	<path class="st0" d="M68.7,21.7c-0.2-0.2-0.3-0.5-0.3-0.9v-8.1c0-0.4,0.1-0.7,0.3-0.9c0.2-0.2,0.5-0.3,0.9-0.3h5.7
		c0.1,0.1,0.1,0.2,0.2,0.4c0,0.1,0.1,0.3,0.1,0.5c0,0.3-0.1,0.5-0.2,0.7c-0.1,0.2-0.3,0.2-0.6,0.2h-4.2v2.5h4.2
		c0.1,0.1,0.1,0.2,0.2,0.4c0.1,0.1,0.1,0.3,0.1,0.5c0,0.6-0.3,0.9-0.8,0.9h-3.7v2.7h4.8c0.1,0.1,0.1,0.2,0.2,0.4
		c0.1,0.2,0.1,0.3,0.1,0.5c0,0.6-0.3,0.9-0.8,0.9h-5.2C69.2,22,68.9,21.9,68.7,21.7z"/>
	<path class="st0" d="M78,21.7c-0.2-0.2-0.3-0.5-0.3-0.9v-9.3c0.1,0,0.2-0.1,0.4-0.1c0.2,0,0.4-0.1,0.6-0.1c0.4,0,0.7,0.1,0.9,0.2
		c0.2,0.2,0.3,0.4,0.3,0.8v7.7h4.4c0.1,0.1,0.1,0.2,0.2,0.4c0.1,0.2,0.1,0.3,0.1,0.5c0,0.3-0.1,0.5-0.2,0.7C84.2,21.9,84,22,83.8,22
		h-4.9C78.5,22,78.2,21.9,78,21.7z"/>
	<path class="st0" d="M26.1,35.2c-0.1,0.1-0.3,0.2-0.4,0.2c-0.2,0.1-0.4,0.1-0.6,0.1c-0.3,0-0.5,0-0.8-0.1c-0.2-0.1-0.3-0.2-0.4-0.4
		c-0.5-1.2-0.9-2.2-1.2-3c-0.3-0.8-0.6-1.5-0.8-2.1h-0.1c0,0.8-0.1,1.5-0.1,2.1c0,0.6-0.1,1.3-0.1,1.9c0,0.6,0,1.2-0.1,1.9
		c0,0.6-0.1,1.3-0.1,2.1c-0.1,0-0.3,0.1-0.4,0.1c-0.2,0-0.4,0.1-0.6,0.1c-0.8,0-1.2-0.3-1.2-0.9c0-0.2,0-0.5,0-0.9
		c0-0.4,0-0.8,0.1-1.3c0-0.5,0.1-1.1,0.1-1.7c0-0.6,0.1-1.2,0.1-1.8c0-0.6,0.1-1.2,0.1-1.8c0-0.6,0.1-1.2,0.1-1.7
		c0.1-0.1,0.3-0.2,0.5-0.4c0.2-0.1,0.6-0.2,1-0.2c0.4,0,0.8,0.1,1.1,0.2c0.3,0.1,0.5,0.4,0.6,0.7c0.1,0.4,0.3,0.7,0.5,1.2
		c0.2,0.4,0.3,0.9,0.5,1.3c0.2,0.4,0.3,0.9,0.5,1.3c0.2,0.4,0.3,0.8,0.5,1.2H25c0.4-1.1,0.8-2.1,1.2-3.1c0.4-1,0.7-1.9,1-2.6
		c0.1-0.1,0.3-0.1,0.5-0.2c0.2,0,0.4-0.1,0.7-0.1c0.4,0,0.8,0.1,1,0.2c0.3,0.1,0.4,0.3,0.5,0.6c0,0.2,0.1,0.6,0.2,1
		c0.1,0.5,0.1,1,0.2,1.6c0.1,0.6,0.1,1.3,0.2,1.9c0.1,0.7,0.1,1.4,0.2,2c0,0.6,0.1,1.2,0.1,1.8c0,0.5,0.1,0.9,0.1,1.2
		c-0.1,0.1-0.3,0.2-0.5,0.2c-0.2,0-0.4,0.1-0.6,0.1c-0.3,0-0.6-0.1-0.8-0.2c-0.2-0.1-0.3-0.3-0.4-0.7c0-0.7-0.1-1.4-0.1-2.1
		c0-0.7-0.1-1.4-0.1-2c0-0.6,0-1.2-0.1-1.7c0-0.5,0-1-0.1-1.4h-0.1c-0.2,0.5-0.4,1.2-0.8,2.1C27,32.8,26.6,33.8,26.1,35.2z"/>
	<path class="st0" d="M37.3,38.1c-0.7,0-1.3-0.1-1.8-0.3c-0.5-0.2-1-0.5-1.4-0.8c-0.4-0.4-0.7-0.8-0.9-1.3c-0.2-0.5-0.3-1-0.3-1.6
		v-6.7c0.1,0,0.2-0.1,0.4-0.1c0.2,0,0.4-0.1,0.6-0.1c0.4,0,0.7,0.1,0.9,0.2c0.2,0.2,0.3,0.4,0.3,0.8V34c0,0.7,0.2,1.3,0.6,1.7
		c0.4,0.4,0.9,0.6,1.5,0.6s1.1-0.2,1.5-0.6c0.4-0.4,0.6-0.9,0.6-1.7v-6.7c0.1,0,0.3-0.1,0.4-0.1c0.2,0,0.4-0.1,0.6-0.1
		c0.4,0,0.7,0.1,0.9,0.2c0.2,0.2,0.3,0.4,0.3,0.8v5.8c0,0.6-0.1,1.2-0.3,1.6c-0.2,0.5-0.5,0.9-0.9,1.3c-0.4,0.4-0.8,0.6-1.4,0.8
		C38.6,38,38,38.1,37.3,38.1z"/>
	<path class="st0" d="M46.5,37.8c-0.1,0-0.3,0.1-0.4,0.1c-0.2,0-0.4,0.1-0.6,0.1c-0.4,0-0.7-0.1-0.9-0.2c-0.2-0.2-0.3-0.4-0.3-0.8
		v-8.7c0-0.2,0.1-0.4,0.2-0.5c0.1-0.1,0.3-0.2,0.5-0.3c0.4-0.1,0.8-0.2,1.3-0.3c0.5-0.1,1-0.1,1.5-0.1c1.5,0,2.7,0.3,3.4,0.9
		s1.1,1.5,1.1,2.6c0,0.7-0.2,1.4-0.6,1.9c-0.4,0.5-0.9,0.9-1.6,1.2c0.5,0.7,1,1.3,1.5,1.9c0.5,0.6,0.8,1.1,1,1.4
		c-0.1,0.3-0.3,0.5-0.5,0.7c-0.2,0.2-0.5,0.3-0.8,0.3c-0.4,0-0.6-0.1-0.8-0.2c-0.2-0.2-0.4-0.4-0.6-0.7l-1.9-2.9h-1.6V37.8z
		 M47.8,32.4c0.7,0,1.2-0.1,1.6-0.4c0.4-0.3,0.6-0.7,0.6-1.3c0-1.2-0.8-1.7-2.3-1.7c-0.2,0-0.5,0-0.7,0c-0.2,0-0.4,0-0.6,0.1v3.4
		H47.8z"/>
	<path class="st0" d="M55.7,37.9c-0.4,0-0.7-0.1-0.9-0.2c-0.2-0.2-0.3-0.4-0.3-0.8v-9.5c0.1,0,0.3-0.1,0.4-0.1
		c0.2,0,0.4-0.1,0.6-0.1c0.4,0,0.7,0.1,0.9,0.2c0.2,0.2,0.3,0.4,0.3,0.8v9.5c-0.1,0-0.3,0.1-0.4,0.1C56.1,37.9,55.9,37.9,55.7,37.9z
		"/>
	<path class="st0" d="M59.7,37.5c-0.2-0.2-0.3-0.5-0.3-0.9v-9.3c0.1,0,0.2-0.1,0.4-0.1c0.2,0,0.4-0.1,0.6-0.1c0.4,0,0.7,0.1,0.9,0.2
		c0.2,0.2,0.3,0.4,0.3,0.8V36h4.4c0.1,0.1,0.1,0.2,0.2,0.4c0.1,0.2,0.1,0.3,0.1,0.5c0,0.3-0.1,0.5-0.2,0.7c-0.1,0.2-0.3,0.3-0.6,0.3
		h-4.9C60.2,37.8,59.9,37.7,59.7,37.5z"/>
	<path class="st0" d="M68.3,37.5C68.1,37.3,68,37,68,36.6v-9.3c0.1,0,0.2-0.1,0.4-0.1c0.2,0,0.4-0.1,0.6-0.1c0.4,0,0.7,0.1,0.9,0.2
		c0.2,0.2,0.3,0.4,0.3,0.8V36h4.4c0.1,0.1,0.1,0.2,0.2,0.4c0.1,0.2,0.1,0.3,0.1,0.5c0,0.3-0.1,0.5-0.2,0.7c-0.1,0.2-0.3,0.3-0.6,0.3
		h-4.9C68.8,37.8,68.5,37.7,68.3,37.5z"/>
	<path class="st0" d="M86.3,32.6c0,0.9-0.1,1.7-0.4,2.4c-0.3,0.7-0.6,1.3-1.1,1.7c-0.5,0.5-1,0.8-1.7,1.1c-0.6,0.2-1.3,0.4-2.1,0.4
		c-0.7,0-1.4-0.1-2.1-0.4c-0.6-0.2-1.2-0.6-1.7-1.1c-0.5-0.5-0.8-1-1.1-1.7c-0.3-0.7-0.4-1.5-0.4-2.4c0-0.9,0.1-1.7,0.4-2.4
		c0.3-0.7,0.6-1.3,1.1-1.7c0.5-0.5,1-0.8,1.7-1.1c0.6-0.2,1.3-0.4,2.1-0.4c0.7,0,1.4,0.1,2.1,0.4c0.6,0.2,1.2,0.6,1.7,1.1
		c0.5,0.5,0.8,1,1.1,1.7C86.2,30.9,86.3,31.7,86.3,32.6z M84,32.6c0-1.2-0.3-2.1-0.8-2.7c-0.5-0.6-1.3-0.9-2.1-0.9
		c-0.9,0-1.6,0.3-2.1,0.9c-0.5,0.6-0.8,1.5-0.8,2.7c0,1.2,0.3,2.1,0.8,2.7c0.5,0.6,1.2,0.9,2.1,0.9c0.9,0,1.6-0.3,2.1-0.9
		C83.8,34.7,84,33.8,84,32.6z"/>
</g>
<g>
	<path class="st1" d="M42.4,50c0.4-0.3,1.4-0.4,1.4,0c-0.1-0.9,0.8-0.5,1.6-0.6C44.4,48.9,38.2,49.6,42.4,50z"/>
	<path class="st1" d="M46,51.7l0.1-0.2l-1.4,0.3C45,51.7,45.9,51.5,46,51.7z"/>
	<path class="st0" d="M52.6,51.1c0.4-0.5-3.2-1-5.9-0.8l3,0.5c-0.2,0.5,0.8,0.8,0.8,1.2c0.8-0.2,1.4-0.4,1.8-0.6
		c0.8,0.3,2-0.2,2.6-0.6L52.6,51.1z M51.2,51.3c-1-0.3,0.1-0.4,0.5-0.5L51.2,51.3z"/>
	<path class="st1" d="M50.7,49.9c-1,0,0.6,0.2-0.4,0.3C50.6,50.1,51,50.1,50.7,49.9z"/>
	<path class="st0" d="M61.8,51.2c-0.4,0.2-0.4,0.1-0.4-0.3c0,0.1-0.8,0.4-1.6,0.6c1-0.6-0.6-0.7-1.4-0.3c-0.2-0.2-0.4-0.5,0.5-0.8
		c-1.3,0.2-2.6,0.4-3.7,0.3c0.3,0.2,0.5,0.1,0.9,0.3c-1.7,0.2-4.2,0.6-0.8,0.7c-1.7-0.4,1.4-0.5,2-0.3c-2.1,0.7,0.8-0.3,0.9,0.5
		c0.1-0.1,0.2-0.1,0.3-0.2c1.9,0.1,3.7-0.2,5.4-0.1C63.7,51.6,61.2,51.4,61.8,51.2z"/>
	<path class="st0" d="M63,49.9c-0.3,0-1.2,0-1.9,0.1c0.1-0.1,0.1-0.2,0.1-0.4c2.3,0.1-0.8-0.5-2,0.6c0.3-0.1,0.6-0.1,1-0.1
		c0.1,0,0.7,0.1,2,0.1C64.4,50.2,61.2,49.9,63,49.9z"/>
	<g>
		<path class="st0" d="M67.8,49.5c-1.5-0.2-0.6,0.4-1,0.6C67.7,50.1,68.6,50.1,67.8,49.5z"/>
		<path class="st0" d="M66,50.1c-1.3-0.2,0-0.1,0.4-0.4c-0.1-0.2-0.6-0.2-0.5-0.4c-0.7,1.6-1.5,0-3.1,1C63.8,50.1,64.8,50.3,66,50.1
			c0.4,0.1,0.7,0.1,0.8,0C66.5,50.1,66.1,50.1,66,50.1z"/>
	</g>
	<path class="st0" d="M64.3,50.3c-2.9-0.3,0.4,0.9-2.8,0.7C62.2,50.8,67,51.4,64.3,50.3z"/>
	<path class="st0" d="M73.6,49.9c-1.7,0.2-2.3,0-2.7,0c-0.3,0.5-2.2,0.1-2.5-0.1c1.2,0.7-0.7,0-1.1,0.7c0.7-0.4,1.6,0.3,1.7-0.4
		l0.4,0.2c-0.6-0.7,9.2,1.9,6.6,0.5c0.2-0.6,0.6,0.3,0.9-0.2C76.4,49.6,74.1,50.7,73.6,49.9z M73.4,50.3l0.1,0.1
		c0.2,0,0.3,0,0.4,0.2l-0.4-0.2C73.2,50.4,73,50.6,73.4,50.3z M75.2,50.8l0.3-0.5C75.9,50.5,75.4,50.6,75.2,50.8z"/>
	<path class="st1" d="M80.5,51.7c-1,0,0.8,0.1,0.2,0.6C80.8,52.1,81.3,51.8,80.5,51.7z"/>
	<path class="st0" d="M58.8,50.4C58.8,50.4,58.8,50.4,58.8,50.4C58.9,50.3,58.9,50.3,58.8,50.4z"/>
	<path class="st1" d="M13.8,52.6c0.2,0.3-0.6-0.1-0.7,0L13.8,52.6z"/>
	<path class="st1" d="M13.9,52.8l1.2,0.2l-7,0.2C7.9,52.7,14,53.1,13.9,52.8z"/>
	<path class="st1" d="M14.3,52.6c0.7-0.6,1.1,0.2,2-0.2C15.5,52.8,15,53,14.3,52.6z"/>
	<path class="st0" d="M16.6,51.3c0.8,0.2,1.7-0.3,2.2-0.1C18.5,52.1,17.3,51.5,16.6,51.3z"/>
	<path class="st0" d="M15.5,50.2l0,0.4C15.1,50.5,15.2,50.3,15.5,50.2z"/>
	<path class="st0" d="M18.4,49.4c-0.3-0.2-1.3,0.1-1.8,0.2c0.9,0-0.2,0.3-0.6,0.4c-0.2,0-0.3,0-0.5,0c-0.1,0.3,0.2,0.1,0.6,0
		C22.6,51.4,14.7,49.5,18.4,49.4z"/>
	<path class="st0" d="M20,49.5l-0.7,0.4C19,49.5,19.7,49.5,20,49.5z"/>
	<path class="st0" d="M21.1,50c-2.1,0.3-1,1-2.5,1C20,50.7,18.6,49.3,21.1,50z"/>
	<path class="st0" d="M18.6,51c-0.2,0-0.4,0.1-0.6,0.1C18.2,51.1,18.4,51,18.6,51z"/>
	<path class="st0" d="M18.6,51c6.4-1.5-7.2,0.2-0.6,0.1"/>
	<path class="st0" d="M12.7,52c0.1,0.1,0.1,0.1,0.1,0.1L12.7,52z"/>
	<path class="st0" d="M58.9,49.6c0-0.7-1.7-0.3-2.3-0.2c-0.1-0.4,0.1-0.3,0.4-0.2c0.5-0.8-0.9,0.1-1.4-0.3c-0.7,0.7-1-0.2-2-0.2
		c-1.1,0.8,0.6-0.2,0.8,0.4c-0.8,0.3-2,0.2-2.9,0.6l0.7-0.7c-0.3,0.4-0.9-0.3-1.7-0.2c2,0.7-1.5,0.4-2.4,0.7
		c1.3,0.1-0.1,0.5-0.7,0.2c0.1-0.7,2.4-0.4,2.1-1c-1-0.1-3.6,1.4-2.2,0.2L46.8,49c0.5,0.3-0.7,0.1-1,0.1c0.6-1-4.3-0.5-4.1-0.4
		c-1.4-0.5-0.8,0.1,0.9,0.6c-1.1,0-1.3-0.4-2.4-0.5c0.9,1-1,0.8-0.3-0.1c-0.8,0.3-0.6-0.3-1.2,0.2c1.3,0.4-7.3-0.7-5.9,0.5
		c-0.5,0.3-2.4,0.1-1.3-0.5c-3.7-0.2-6.3,0.3-8.8,0.9c1,0.2,2.5-0.3,2.5-0.2c-0.1,0,2.2-0.8,1.7,0c1.5-1,2.6,0.4,4-0.2
		c-1.1,1.5-5.5,0.8-7.7,0.8c1.1,0.3-1.8,0.3-2.1,0.4c-0.2,0.3,1.2,0.2,1.6,0.4c-0.6,0.9-1.4-0.5-2.1,0.3c0.2,0.3,2.3,0.4,0.3,0.4
		c0.6,0.7,1.5-0.3,1.8,0.4c-1.2,0.4-1.4-0.5-1.4,0.6c-1.1-0.2-3.4-0.5-0.4-1c-0.4-0.2-2-0.3-2.3-0.3l0.7,0.2
		c-0.9,0.2-2.5,1.5-2.6,0.1c-1.1,0.9-0.6,0.4-2.6,0.5c5.5-1.1-8.9,0.7-9.6,1.1l2.4,0c-1.7,0.3-5.8,1.5-6.9,1.1
		c3.3,1.2,6.7,0.8,7,0.2l-0.4-0.1c3.8-1,8.9-1,12-1c-1.6-0.3,2.5,0.2,1.4-0.4c2.7,0.2,6-0.7,8.8,0c-0.6-1.1,8.8,0.1,10.3-0.4
		c1.3-0.5,6.7-0.2,9.2-0.7c0.6,0,1.4-0.2,2.4-0.5c-2.5,0.6-3.5-1.6-5-0.9c0.2,0.3,0.4,0.5,0.6,0.7c-3,0.6-4.2,0.4-4.3,0
		c0.2,0,0.3,0,0.3-0.1c-0.1,0-0.2,0-0.3,0c0-0.1,0.2-0.3,0.4-0.4c0,0.2,0.1,0.3-0.1,0.4c1,0,2.1,0.1,1.2-0.8
		c0.6-0.1,1.4-0.1,2.2,0.1c1.2,0,2.5,0,3.6-0.1c-0.3-1,1.6,0.6,3-0.4c-0.2,0.1,1.3,0.4,0.3,0.6c1.5,0.1,3.6-0.9,3.7-0.3
		c0.8-0.9,1.5,0.6,2.4,0.1C57.1,50.5,61.3,48.7,58.9,49.6z M46.5,51.2c0.1,0.1,0.2,0.2,0.3,0.3C46.3,51.6,45.9,51.8,46.5,51.2z"/>
	<g>
		<g>
			<path class="st0" d="M65.2,51.4c0.1,0,0.1,0,0.2,0C65.3,51.4,65.3,51.4,65.2,51.4z"/>
			<path class="st0" d="M69.1,51.3c1.3,0.3,2.7,0.3,4.3,0.4c-1.4-0.2-2.7-0.5-3.6-0.8c0.9,1.2-3.8-1-3.3-0.3
				c0.6,0.2,1.2,0.4,1.7,0.6c-0.9,0-2.1,0.2-2.9,0.3c0.1,0,0.2,0,0.3,0.1c-1.1,0.6-2.5-0.7-3,0.2c0.4-0.3,2.2,0.3,2.8,0.1
				c0.6-0.5,3.2-0.3,3.9,0.2C69.5,51.6,69.3,51.4,69.1,51.3z"/>
		</g>
		<path class="st0" d="M77.1,51.8c0.1,0,0.2,0,0.3,0C77.3,51.6,77.1,51.5,77.1,51.8z"/>
		<path class="st0" d="M80,50.9c0.5,0.3-1.1,0.1-1-0.2l-0.2,0.5c-1.2,0.2,0.5-1.3-0.8-1.2c0.6,0.2,0.2,0.8-0.2,0.8
			c0.1-0.2-0.5-0.4-1-0.3c0.6,0,0.9,0.3,0.8,0.6l1.1,0.9c-0.3,0-0.8,0-1.2,0c0.1,0.1,0.2,0.2,0.2,0.3c-1.7-0.4-3.5-0.7-4.6-0.6
			c1.2,0.3,3.3,0.7,4.7,0.7c0.3,0.3,0.7,0.7,1.1,0.6c-0.4-1,1,0.1,2.2-0.2c2.2-1.2,1.5-0.5,5.6-0.8l1.2-1
			C85.1,50.8,84.5,50.9,80,50.9z"/>
	</g>
</g>
<path class="st2" d="M143.3,22.7c-0.6-0.2-3.7-0.4-4.4-0.3c-4.4,0.9-5.3,4.2-9.2,4.1c-1.7,1.2-2.9,1.5-5.7,1.6
	c-2.6,0.1-5.2-0.8-5.2-0.8s-1.6,1.6-2.2,1.8c-0.1,0.9-0.4,1.9-0.6,2.3c-0.1,1,2.3,1.7,1.1,4.2c-0.7,1-0.8,1-1.4,1
	c-0.6,0-1.8-1.3-2.8-2.1c-0.4-0.6-1.1-3.9-1.4-3.7c-0.1,1.3-0.9,2.2-0.8,2.9c0,0,0.3,2.9,0.4,3.9c0.1,1-0.4,2.8-2.1,3
	c-1.7,0.2-2-1-2-1.5c-0.1-0.5-1.2-5.7-1.5-6.3c-0.2,1.6,0.2,5.3-2.6,5.5c0,0-1.3,0.1-1.5-1.1c-0.3-0.8,0.5-3.4,0.2-4.5
	c-0.3-1.1-2,3.2-4.1,2.7c-1.5-0.3-1.7-1-1.7-1.8c0,0,0.8-1.4,1-1.8c0.1-0.3,0.4-1.6,0.9-2.3c0.4-0.6,1.2-1.7,1.7-3
	c0.5-1.3,0.6-3.9,2.3-6.6c1.7-2.8,3.9-4.2,5.8-5.8c0,0,0.8-0.7,1.5-1.3c0.7-0.6,2-2.7,2.7-2.9c0.6-0.2,2.1,0,2.6,0
	c0.6,0,1.7,0,2,0.1c0.4,0.1,1.3,0.3,2.2,0.2c4.6,0.1,4.6-0.5,10.6-0.4c4.7,0.1,10.5,1.1,14.3,1.3"/>
<path class="st3" d="M124.5,28.2"/>
<path class="st4" d="M121.3,7.3c1.4,1-23.9,32-23.9,32S97,40,97,40.3c0,0.3,0,1.2-0.4,1.9c-2.1,3.1-4.7,6.9-9.9,9.6
	c-0.8,0.4-3.8,0.4-4.3,0.3c-0.4,0-1.2-0.7-1.2-1.4c0-0.6,2.7-1.8,3.6-2.2c4.1-1.8,8.5-9,8.6-9.2c0.8-0.7,1.4-0.2,2.4-1.2
	C96.3,37.7,120,6.4,121.3,7.3z"/>
<path class="st5" d="M129.7,23.4c-0.4-0.5-2.4-1.4-3.3-1.3c-1.7,0.2-2.6,2.4-5.8,2.3c-2.7-0.1-3.7-1-4.2-1c-0.5,0-3.5,2.1-4.5,1.9
	c-1-0.2-1.6-0.7-1.9-0.5c-0.3,0.2-0.7,2.4-1.7,2.9c-2.1,1-3.9-0.3-4.5,0.3c0.8,0.1,2,0.4,2.1,1.1c0,0,0.2,1.2-0.2,1.9
	c0.4,0.2,1.2-1.3,1.8-1.5c0.6-0.2,2.1,0,3.1-0.6c1-0.5,1.1-1.5,2.2-2c1.1-0.4,3.7-0.7,4.3-0.5c0.6,0.2,1.2,1,2.3,1.3
	c0.4,0.1,2.2-0.4,4.1-1.1c1-0.8,1-1.3,1.6-1.7c0.8-0.6,1.9-0.4,1.9-0.4c-0.1,0.1-0.5,0.6-1.1,1.1C128,24.6,129.8,23.7,129.7,23.4z"
	/>
<path class="st6" d="M92.9,45c-1.5,1.7-3.3,3.5-4.2,3.7c0,0-1.8,0.3-2.4-0.9c-0.1-0.1-1.2,0.6-1.2,0.6l-2,0.9l-1.6,1l-0.4,0.6l0.7,1
	l1.4,0.3L86,52c0,0,1.2-0.4,3.3-1.8c2.1-1.3,4.3-3.9,4.3-3.9l0.5-0.7"/>
<path class="st6" d="M94.2,45.5l2.4-3.4c-1.1-0.4-1.9-0.8-2.4-1.4c-0.5-0.6,0.4,0.9,0.8,1.4c-0.1,0.3-1,1.5-2.1,2.8"/>
<path class="st7" d="M94.5,46.1c-1.2-0.6-3-1.7-3.9-3.4"/>
<path class="st5" d="M136.9,19.9c-2.3,0.1-5,2.6-6.9,2.5c-1.5,0-2.5-0.2-3.6-0.3c-1.3,2.3-7,5.1-7.2,5.1c-0.5,0-1.2-0.6-3.5-0.2
	c-1.9,0.3-3.3,1.4-5.8,3.2c-1.5,1.1-5,2.2-6.8,1.3l-1.5,1.9l-0.1,2c0,0,0.9-0.8,1-0.8s0.3,0.8,0.7,1c0.4,0.2,1.6,0.7,1.5,1.6
	c0,0.9,0.3-1,0.3-1l0.3-2.7l0.5,1.4c0,0,0.6-0.6,1.1-0.5c1.6,0.3,0.6,0.8,1.4,1.4c0.8,0.6,1.2,0.4,1.4,1.1c0.2,0.7,0.5,3,0.2,3.5
	c-0.3,0.5,0.9-1.2,0.9-1.2L111,37l-0.5-3.4l1.1-2.4l1.2,3.1c0,0,1.1-1.5,1.8-1.2c0.7,0.3,1.9,1.1,2.3,2.7c0.3,1.5,0.6-2.1,0.6-2.1
	l-1.5-1.9l0.6-2.7l2.2-1.8c0,0,4,0.9,5.9,0.8c1.9-0.1,5.1-1.6,5.1-1.6s1.1,0.2,2.4-0.5c1.3-0.6,4.5-2.7,6.5-3.5
	c1.1-0.4,3.9-0.1,4.7,0.2l0.1-0.5C141.7,21.2,138.2,19.8,136.9,19.9z M121.7,27.6c2.8-1.6,2.5-2.3,3.3-2.8c0.8-0.6,1.9-0.4,1.9-0.4
	C126.5,24.8,123.6,28.1,121.7,27.6z"/>
<path class="st0" d="M143.5,22.3c-0.7-0.3-3.9-0.4-4.7-0.3c-2.2,0.4-3.5,1.4-4.8,2.3c-1.3,1-2.4,1.8-4.4,1.7l-0.1,0l-0.1,0.1
	c-1.6,1.1-2.8,1.4-5.4,1.5c-2.5,0.1-5-0.8-5-0.8l-0.3-0.1l-0.2,0.2c-0.7,0.6-1.7,1.6-2.1,1.8l-0.2,0.1l0,0.3
	c-0.1,0.6-0.3,1.3-0.4,1.8c-0.1,0.2-0.1,0.3-0.1,0.5c-0.1,0.5,0.3,0.9,0.7,1.3c0.6,0.7,1.2,1.3,0.6,2.7c-0.5,0.8-0.6,0.8-1.1,0.8
	c-0.3,0-1.2-0.8-1.7-1.3c-0.3-0.2-0.5-0.5-0.8-0.7c-0.1-0.3-0.4-1-0.6-1.6c-0.5-1.7-0.7-2.1-1-2.2l-0.3-0.1l-0.3,0.3l0,0.2
	c-0.1,0.6-0.3,1.1-0.5,1.5c-0.2,0.5-0.4,1-0.4,1.4c0,0.1,0.3,2.9,0.4,3.9c0.1,0.5,0,1.2-0.5,1.8c-0.3,0.4-0.7,0.7-1.3,0.7
	c-1.2,0.2-1.4-0.5-1.5-1.2c-0.1-0.4-1.2-5.7-1.6-6.5l-0.8,0.2c0,0.3,0,0.6-0.1,1c-0.1,2.1-0.3,4-2.1,4.1c-0.1,0-0.9,0-1-0.8
	c-0.1-0.3,0-1.1,0.1-1.8c0.1-0.9,0.2-1.8,0.1-2.5l-0.9,1.1c0,0.4-0.1,0.9-0.1,1.3c-0.1,1.1-0.2,1.7-0.1,2.1c0.2,1.3,1.4,1.5,1.9,1.4
	c2-0.1,2.6-1.8,2.8-3.3c0.4,1.6,0.8,3.5,0.8,3.8c0.2,1.6,1.3,2,2.1,2c0.1,0,0.3,0,0.4,0c0.8-0.1,1.4-0.5,1.8-1.1
	c0.6-0.8,0.7-1.8,0.6-2.4c-0.1-0.9-0.4-3.8-0.4-3.9c0-0.2,0.1-0.6,0.3-1c0.1-0.2,0.2-0.4,0.2-0.6c0.1,0.3,0.2,0.5,0.2,0.8
	c0.3,1,0.5,1.6,0.7,1.9l0.1,0.1c0.2,0.2,0.5,0.5,0.8,0.7c1.1,1,1.8,1.6,2.3,1.5c0.7,0,1-0.2,1.8-1.3c0.9-1.9,0-3-0.7-3.7
	c-0.2-0.2-0.5-0.5-0.5-0.6c0-0.1,0.1-0.2,0.1-0.4c0.1-0.4,0.3-1.1,0.4-1.8c0.6-0.4,1.5-1.2,1.9-1.6c0.7,0.2,2.9,0.8,5.1,0.8
	c2.8-0.1,4.1-0.5,5.8-1.6c2.1,0,3.4-0.9,4.8-1.9c1.2-0.9,2.4-1.8,4.4-2.2c0.6-0.1,3.7,0.1,4.2,0.2c0.2,0.1,0.5,0,0.6-0.2
	C143.8,22.7,143.7,22.4,143.5,22.3z"/>
<g>
	<path class="st0" d="M103.2,31.5c-2.2,2.7-4.3,5.3-6.1,7.6c-0.2,0.3-0.4,0.8-0.4,1.2c0,0.3,0,1-0.4,1.5c-1.8,2.7-4.5,6.7-9.8,9.5
		c-0.7,0.3-3.5,0.3-4,0.3c-0.2,0-0.8-0.5-0.8-0.8c0.1-0.2,0.9-0.8,3.3-1.9c2.5-1.1,5.3-4.1,8.5-8.9c0.1-0.2,0.2-0.3,0.2-0.3
		c0.3-0.2,0.5-0.3,0.8-0.4c0.4-0.1,1-0.2,1.6-0.9c0.1-0.1,0.5-0.6,2-2.6c1.4-1.8,2.8-3.6,4-5.2c-0.2-0.4-0.2-0.9-0.1-1.3
		c-1.4,1.9-3,3.9-4.7,6c-1,1.4-1.9,2.4-2,2.5c-0.4,0.5-0.8,0.5-1.2,0.6c-0.4,0.1-0.7,0.2-1.2,0.6c-0.1,0.1-0.1,0.1-0.4,0.5
		c-3.1,4.7-5.9,7.6-8.2,8.6c-3.8,1.7-3.8,2.3-3.9,2.6c-0.1,0.9,0.9,1.8,1.6,1.8c0.1,0,0.5,0,1,0c1.1,0,2.8-0.1,3.5-0.4
		c5.5-2.9,8.3-7,10.1-9.8c0.5-0.8,0.5-1.7,0.5-2.1c0-0.1,0.2-0.5,0.3-0.7c1.1-1.4,3.5-4.3,6.3-7.9C103.7,31.7,103.4,31.6,103.2,31.5
		z"/>
	<path class="st0" d="M107.2,23.8c0.1-0.1,0.4-0.2,0.6-0.4c6.8-8.6,11-13.7,12.7-15.3c-1.1,2.1-5.3,7.8-10.2,14.1
		c0.6-0.2,1.1-0.5,1.7-0.7c5.3-6.8,9.9-13.2,9.7-14.3c0-0.2-0.1-0.3-0.2-0.4c-0.6-0.4-1.2-0.8-16.3,18.5
		C105.9,24.8,106.6,24.2,107.2,23.8z"/>
	<g>
		<path class="st5" d="M114.1,15.6c-0.5-0.8-0.9-1.6-0.9-1.6s-1.7,3.8-2.5,3.6c-0.8-0.2-1.2-0.5-1.9-0.6c-0.7-0.1-1.5,4.1-2.6,4.8
			c-1,0.6-1.5,0.5-1.9,1c0,0-1,2.4-1.3,2.7c-0.3,0.3-1.5,1.4-1.6,1.9c-0.1,0.5-0.9,3-1.5,4.1c-0.7,1.3-2,3.3-2.8,3.8
			c-0.8,0.5,1,0.1,1,0.1l1.1-0.8l3.1-4c-1-2.1,3.1-5.4,4.9-6.8c0.1-0.1,0.4-0.2,0.6-0.4C110.3,20.4,112.4,17.8,114.1,15.6z"/>
		<path class="st5" d="M114.9,16.4c-1.4,1.8-2.9,3.8-4.5,5.9c1.5-0.6,3.1-1.3,3.5-1.6c0.6-0.4,2.2-1.7,3.7-2.8l0.6-0.6
			c-0.5-0.4-2.1,0-3.1-0.7C115,16.6,114.9,16.5,114.9,16.4z"/>
	</g>
</g>
<g>
	<path class="st0" d="M109.2,13.1c0.4-0.3,0.8-0.8,1.2-1.4c0.4-0.5,1-1.3,1.3-1.4c0.4-0.1,1.4,0,2,0c0.2,0,0.3,0,0.5,0
		c0.2,0,0.6,0,0.9,0c0.4,0,0.9,0,1.1,0.1c0.4,0.1,1.2,0.2,2.1,0.2c0.3-0.3,0.5-0.6,0.8-0.9c-0.2,0-0.4,0-0.6,0
		c-0.9,0-1.7-0.1-2.1-0.2c-0.3-0.1-0.7-0.1-1.3-0.1c-0.3,0-0.6,0-0.8,0c-0.1,0-0.3,0-0.4,0c-0.9-0.1-1.8-0.2-2.4,0
		c-0.4,0.2-0.9,0.7-1.7,1.7c-0.4,0.5-0.8,1-1.1,1.3c-0.7,0.6-1.5,1.3-1.5,1.3c-0.4,0.3-0.8,0.7-1.2,1c-1.6,1.3-3.3,2.6-4.7,4.9
		c-1.3,2-1.7,3.9-2,5.3c-0.1,0.6-0.2,1-0.4,1.4c-0.3,0.9-0.9,1.8-1.6,2.9c-0.4,0.5-0.6,1.3-0.8,1.9c-0.1,0.2-0.1,0.4-0.2,0.5
		c-0.1,0.2-0.6,1.2-1,1.7l-0.1,0.1l0,0.1c0,1.1,0.4,1.9,2.1,2.2c0.3,0.1,0.6,0.1,0.9,0l2.7-3.5c-0.2,0.2-0.5,0.4-0.8,0.8
		c-0.7,0.8-1.7,2.1-2.7,1.8c-1.2-0.2-1.3-0.6-1.4-1.3c0.2-0.4,0.8-1.4,1-1.7c0-0.1,0.1-0.3,0.2-0.6c0.2-0.5,0.4-1.2,0.7-1.6
		c0.8-1.1,1.3-2.1,1.7-3.1c0.2-0.4,0.3-0.9,0.4-1.5c0.3-1.3,0.7-3.2,1.9-5.1c1.3-2.1,2.9-3.4,4.5-4.6c0.4-0.4,0.9-0.7,1.3-1.1
		C107.7,14.4,108.5,13.7,109.2,13.1z"/>
	<path class="st0" d="M143.3,10.7c-1.5-0.1-3.2-0.3-5.1-0.5c-3-0.3-6.3-0.7-9.2-0.8c-3.1-0.1-4.6,0.1-6,0.2c-1,0.1-1.9,0.2-3.4,0.2
		c-0.2,0.3-0.4,0.6-0.6,0.9c1.9,0,2.9-0.1,4.1-0.2c1.3-0.1,2.8-0.3,5.9-0.2c2.9,0.1,6.2,0.4,9.2,0.8c1.9,0.2,3.7,0.4,5.1,0.5
		c0.2,0,0.5-0.2,0.5-0.4S143.6,10.7,143.3,10.7z"/>
</g>
</svg>
